PathFileType	4	(X/Y/Z)	C:/Users/beibeiliu/ov580/test_trc/User2\sequence.3_training_dense_left.trc
DataRate	CameraRate	NumFrames	NumMarkers	Units	OrigDataRate	OrigDataStartFrame	OrigNumFrames
120	120	10	19	mm	120	43	343
Frame#	Time	ThumbCMC			ThumbMCP			ThumbIP			ThumbTip			IndexMCP			IndexPIP			IndexTip			MiddleMCP			MiddlePIP			MiddleTip			RingMCP			RingPIP			RingTip			PinkyMCP			PinkyPIP			PinkyTip			BackHand1			BackHand2			BackHand3	
		X0	Y0	Z0	X1	Y1	Z1	X2	Y2	Z2	X3	Y3	Z3	X4	Y4	Z4	X5	Y5	Z5	X6	Y6	Z6	X7	Y7	Z7	X8	Y8	Z8	X9	Y9	Z9	X10	Y10	Z10	X11	Y11	Z11	X12	Y12	Z12	X13	Y13	Z13	X14	Y14	Z14	X15	Y15	Z15	X16	Y16	Z16	X17	Y17	Z17	X18	Y18	Z18	
42	0.35	-220.858	39.5029	92.8305	-202.786	54.7336	62.8348	-171.222	44.0217	42.6604	-149.742	29.9628	42.9685	-193.853	2.46845	31.5993	-172.318	28.6852	31.9173	-189.095	36.1984	64.1003	-167.367	-2.9034	41.4677	-154.303	27.8829	48.9687	-183.658	31.8781	78.9784	-150.867	-0.921492	60.3063	-146.655	30.0614	70.5399	-175.344	28.0374	92.4475	-140.339	1.08354	78.9291	-150.212	31.0562	90.7608	-175.468	20.5365	109.307	-190.01	-23.5983	106.853	-202.141	-12.0572	137.345	-223.747	-2.1243	107.112	
43	0.358333	-226.096	39.0625	93.9635	-207.353	51.5904	64.5145	-180.391	50.4924	41.6762	-151.874	33.1108	39.4979	-190.372	2.56789	32.8179	-177.457	30.8035	27.3699	-189.652	39.3908	61.2336	-169.766	-2.44337	43.3518	-161.132	34.2973	45.4105	-182.851	34.0258	77.3967	-151.876	7.00776	56.1535	-150.056	35.0784	64.581	-175.644	31.3651	93.8503	-143.731	8.95049	73.9295	-152.152	36.7037	88.0561	-175.067	27.8598	107.628	-187.264	-22.318	103.223	-196.788	-13.0438	138.703	-224.033	-2.74748	107.521	
44	0.366667	-226.004	36.9197	97.9381	-211.716	53.8248	62.219	-182.412	49.4422	35.1561	-158.192	35.0015	39.2441	-196.205	3.4363	32.7975	-179.733	30.3068	27.2227	-194.135	37.7513	62.6552	-174.942	-1.27671	41.4748	-161.713	31.9759	42.3192	-186.545	35.772	76.0241	-152.21	9.39316	54.9399	-152.483	37.4203	62.3354	-177.277	32.9508	92.471	-145.009	7.88407	74.4166	-155.48	39.893	88.2308	-179.987	26.8534	106.738	-185.742	-20	105.207	-199.341	-10.1852	135.655	-224.269	-5.20961	104.833	
45	0.375	-227.595	37.3775	95.4731	-212.148	51.509	61.482	-186.316	50.3329	40.112	-161.673	39.1354	35.4712	-198.312	3.53354	31.7985	-184.557	32.4796	28.6411	-198.047	38.158	61.1502	-175.032	0.859512	38.7925	-164.465	34.3261	45.6691	-187.199	35.8596	76.19	-158.418	7.70865	52.2983	-155.972	37.3228	59.719	-180.741	32.1357	91.3876	-145.17	13.279	71.8555	-155.323	40.4172	86.7848	-178.281	30.9784	106.147	-182.922	-20.6445	107.113	-199.733	-10.4345	138.364	-223.332	-4.09637	108.194	
46	0.383333	-230.078	35.6286	93.0751	-215.918	52.4028	60.8169	-189.271	48.8298	37.7679	-162.101	33.6514	37.7728	-201.279	1.31497	32.511	-184.916	28.6863	26.6157	-196.841	35.7657	62.1543	-178.659	-0.822475	37.3867	-169.342	35.0988	42.6159	-188.574	34.7341	75.5212	-155.4	5.04379	54.6861	-158.773	37.5032	58.1942	-178.564	34.3977	89.7725	-146.171	12.9082	70.3368	-156.785	39.0392	80.6449	-177.363	29.8887	103.937	-186.936	-20.7841	104.127	-197.441	-9.54905	138.937	-224.541	-4.15709	107.906	
47	0.391667	-231.082	37.5656	94.7929	-214.993	48.4261	63.6596	-191.401	47.0294	32.3032	-164.7	33.847	29.968	-202.971	0.350849	30.6416	-190.784	26.4183	24.722	-202.027	37.7099	59.2875	-181.449	-4.75397	40.2063	-168.788	30.6133	40.3847	-191.623	34.4653	74.0513	-158.214	6.91881	51.2266	-160.954	35.4802	56.3857	-181.223	33.6028	88.8204	-150.029	8.21947	69.2627	-158.365	38.6408	80.7576	-179.213	27.7051	103.882	-186.327	-18.4852	107.506	-198.86	-10.6353	136.296	-225.631	-5.14686	109.763	
48	0.4	-232.026	37.3889	99.6817	-218.647	47.8272	64.7823	-197.923	45.146	31.2791	-170.971	28.8564	31.5589	-210.617	-3.78361	33.101	-194.838	23.2143	24.9849	-204.034	35.6465	58.5238	-185.732	-6.92985	40.3194	-178.57	29.3771	36.9424	-197.683	32.3261	72.4912	-167.982	2.18454	50.3613	-162.785	34.6401	56.3864	-187.566	30.3864	85.5358	-150.861	9.19139	64.9316	-162.783	38.1929	76.8947	-178.799	30.1104	99.8024	-186.461	-20.4303	108.535	-195.015	-9.54414	136.44	-222.409	-5.64452	114.818	
49	0.408333	-235.541	38.5098	97.681	-223.982	45.8418	65.7352	-206.499	40.67	33.3667	-180.952	24.0907	25.3256	-219.848	-6.2593	34.784	-207.619	21.1587	25.6273	-213.297	34.5309	56.38	-196.797	-9.2951	38.6768	-186.064	24.1234	35.4338	-199.399	28.3301	75.6928	-173.788	-0.6855	46.7892	-173.186	31.729	50.9432	-187.072	31.8509	84.3009	-162.273	0.645927	63.0102	-167.585	33.9105	68.1146	-180.343	30.5463	100.146	-191.182	-21.4931	107.02	-196.903	-4.72363	138.314	-226.085	-3.31234	116.814	
50	0.416667	-237.067	42.6331	106.316	-231.589	44.6127	66.6564	-218.343	36.9381	35.185	-196.314	18.7361	21.1794	-237.311	-8.6103	45.2046	-218.921	14.4881	27.5406	-221.902	33.3223	56.3609	-210.449	-12.9261	42.9888	-198.365	19.3335	34.6159	-204.19	27.8387	72.7881	-188.413	-7.09692	47.5258	-181.085	26.6424	48.0715	-194.018	28.8198	83.4543	-170.405	-0.281434	57.9298	-170.758	31.0597	63.2778	-185.166	31.0159	92.5969	-196.507	-19.5799	111.5	-195.192	-5.55236	141.141	-228.916	-1.37149	122.758	
51	0.425	-239.703	45.1075	109.963	-240.182	47.3344	69.4912	-229.361	33.6682	38.2174	-209.338	11.0545	23.8365	-247.927	-10.7403	50.5115	-235.155	11.5	31.5983	-230.211	30.683	63.2441	-225.119	-15.9422	47.8815	-215.097	13.3245	32.9839	-214.289	24.8741	77.1925	-203.397	-10.2196	47.9804	-196.359	21.3417	44.5355	-198.304	28.1834	78.7778	-179.424	-7.95122	58.0878	-182.851	27.4502	60.7707	-192.785	26.0551	89.8755	-203.877	-19.0688	112.495	-194.604	-2.80573	142.611	-234.717	1.50601	127.86	
